<svg width="15" height="9" viewBox="0 0 15 9" fill="none" xmlns="http://www.w3.org/2000/svg">
<path fill-rule="evenodd" clip-rule="evenodd" d="M14 8.00004V1H1V8.00004H14ZM15 1V8.00004C15 8.55224 14.5523 9.00004 14 9.00004H1C0.447715 9.00004 0 8.55224 0 8.00004V1C0 0.44772 0.447715 0 1 0H14C14.5523 0 15 0.44772 15 1ZM2 2.24994C2 2.11187 2.11193 1.99994 2.25 1.99994H5.75C5.88807 1.99994 6 2.11187 6 2.24994V6.74994C6 6.88801 5.88807 6.99994 5.75 6.99994H2.25C2.11193 6.99994 2 6.88801 2 6.74994V2.24994ZM7.5 3.99994C7.22386 3.99994 7 4.2238 7 4.49994C7 4.77608 7.22386 4.99994 7.5 4.99994H10.5C10.7761 4.99994 11 4.77608 11 4.49994C11 4.2238 10.7761 3.99994 10.5 3.99994H7.5ZM7 6.49994C7 6.2238 7.22386 5.99994 7.5 5.99994H12.5C12.7761 5.99994 13 6.2238 13 6.49994C13 6.77608 12.7761 6.99994 12.5 6.99994H7.5C7.22386 6.99994 7 6.77608 7 6.49994ZM7.5 1.99994C7.22386 1.99994 7 2.2238 7 2.49994C7 2.77608 7.22386 2.99994 7.5 2.99994H11.5C11.7761 2.99994 12 2.77608 12 2.49994C12 2.2238 11.7761 1.99994 11.5 1.99994H7.5Z" fill="#1C2024"/>
</svg>
