<svg width="12" height="13" viewBox="0 0 12 13" fill="none" xmlns="http://www.w3.org/2000/svg">
<path fill-rule="evenodd" clip-rule="evenodd" d="M6.00005 0.0500488C6.24858 0.0500488 6.45005 0.251519 6.45005 0.500049V7.41365L8.6819 5.18185C8.8576 5.00611 9.1425 5.00611 9.3182 5.18185C9.494 5.35759 9.494 5.64251 9.3182 5.81825L6.31825 8.81825C6.14251 8.99398 5.85759 8.99398 5.68185 8.81825L2.68185 5.81825C2.50611 5.64251 2.50611 5.35759 2.68185 5.18185C2.85759 5.00611 3.14251 5.00611 3.31825 5.18185L5.55005 7.41365V0.500049C5.55005 0.251519 5.75152 0.0500488 6.00005 0.0500488ZM1 9.00006C1.27614 9.00006 1.5 9.22396 1.5 9.50006V11.0001C1.5 11.554 1.94565 12.0001 2.49635 12.0001H9.5012C10.0529 12.0001 10.5 11.5529 10.5 11.0001V9.50006C10.5 9.22396 10.7239 9.00006 11 9.00006C11.2761 9.00006 11.5 9.22396 11.5 9.50006V11.0001C11.5 12.1042 10.6062 13.0001 9.5012 13.0001H2.49635C1.39019 13.0001 0.5 12.1031 0.5 11.0001V9.50006C0.5 9.22396 0.72386 9.00006 1 9.00006Z" fill="white"/>
</svg>
