<svg width="26" height="31" viewBox="0 0 26 31" fill="none" xmlns="http://www.w3.org/2000/svg">
<path fill-rule="evenodd" clip-rule="evenodd" d="M13 0.449219C13.5799 0.449219 14.05 0.919315 14.05 1.49922V17.631L19.2576 12.4234C19.6676 12.0134 20.3323 12.0134 20.7423 12.4234C21.1525 12.8335 21.1525 13.4983 20.7423 13.9084L13.7424 20.9084C13.3324 21.3184 12.6675 21.3184 12.2575 20.9084L5.25749 13.9084C4.84743 13.4983 4.84743 12.8335 5.25749 12.4234C5.66755 12.0134 6.33236 12.0134 6.74242 12.4234L11.95 17.631V1.49922C11.95 0.919315 12.4201 0.449219 13 0.449219ZM1.33317 21.3326C1.9775 21.3326 2.49984 21.855 2.49984 22.4992V25.9992C2.49984 27.2917 3.53969 28.3326 4.82465 28.3326H21.1693C22.4566 28.3326 23.4998 27.2891 23.4998 25.9992V22.4992C23.4998 21.855 24.0223 21.3326 24.6665 21.3326C25.3107 21.3326 25.8332 21.855 25.8332 22.4992V25.9992C25.8332 28.5755 23.7476 30.6659 21.1693 30.6659H4.82465C2.24361 30.6659 0.166504 28.5729 0.166504 25.9992V22.4992C0.166504 21.855 0.688844 21.3326 1.33317 21.3326Z" fill="#0B68CB"/>
</svg>
