<svg width="16" height="15" viewBox="0 0 16 15" fill="none" xmlns="http://www.w3.org/2000/svg">
<rect width="15" height="15" transform="translate(0.5)" fill="white" fill-opacity="0.01"/>
<path fill-rule="evenodd" clip-rule="evenodd" d="M8.00005 1.05005C8.24858 1.05005 8.45005 1.25152 8.45005 1.50005V8.41365L10.6819 6.18185C10.8576 6.00611 11.1425 6.00611 11.3182 6.18185C11.494 6.35759 11.494 6.64251 11.3182 6.81825L8.31825 9.81825C8.14251 9.99398 7.85759 9.99398 7.68185 9.81825L4.68185 6.81825C4.50611 6.64251 4.50611 6.35759 4.68185 6.18185C4.85759 6.00611 5.14251 6.00611 5.31825 6.18185L7.55005 8.41365V1.50005C7.55005 1.25152 7.75152 1.05005 8.00005 1.05005ZM3 10.0001C3.27614 10.0001 3.5 10.224 3.5 10.5001V12.0001C3.5 12.554 3.94565 13.0001 4.49635 13.0001H11.5012C12.0529 13.0001 12.5 12.5529 12.5 12.0001V10.5001C12.5 10.224 12.7239 10.0001 13 10.0001C13.2761 10.0001 13.5 10.224 13.5 10.5001V12.0001C13.5 13.1042 12.6062 14.0001 11.5012 14.0001H4.49635C3.39019 14.0001 2.5 13.1031 2.5 12.0001V10.5001C2.5 10.224 2.72386 10.0001 3 10.0001Z" fill="#646464"/>
</svg>
