<svg width="15" height="9" viewBox="0 0 15 9" fill="none" xmlns="http://www.w3.org/2000/svg">
<path fill-rule="evenodd" clip-rule="evenodd" d="M7.5 8C4.80285 8 2.52952 6.62184 1.09622 4.50001C2.52952 2.37816 4.80285 1 7.5 1C10.1971 1 12.4705 2.37816 13.9038 4.50001C12.4705 6.62183 10.1971 8 7.5 8ZM7.5 0C4.30786 0 1.65639 1.70638 0.0760002 4.23501C-0.0253338 4.39715 -0.0253334 4.60288 0.0760014 4.76501C1.65639 7.2936 4.30786 9 7.5 9C10.6921 9 13.3436 7.2936 14.924 4.76501C15.0253 4.60288 15.0253 4.39715 14.924 4.23501C13.3436 1.70638 10.6921 0 7.5 0ZM7.5 6.5C8.60457 6.5 9.5 5.60457 9.5 4.5C9.5 3.39543 8.60457 2.5 7.5 2.5C6.39543 2.5 5.5 3.39543 5.5 4.5C5.5 5.60457 6.39543 6.5 7.5 6.5Z" fill="#60646C"/>
</svg>
