<svg width="11" height="13" viewBox="0 0 11 13" fill="none" xmlns="http://www.w3.org/2000/svg">
<path fill-rule="evenodd" clip-rule="evenodd" d="M1.5 1C1.22386 1 1 1.22386 1 1.5V11.5C1 11.7761 1.22386 12 1.5 12H9.5C9.7761 12 10 11.7761 10 11.5V5H6.5C6.22386 5 6 4.77614 6 4.5V1H1.5ZM7 1.70711L9.2929 4H7V1.70711ZM0 1.5C0 0.67157 0.67157 0 1.5 0H6.5C6.63261 0 6.75979 0.05268 6.85355 0.14645L10.8536 4.14645C10.9473 4.24021 11 4.36739 11 4.5V11.5C11 12.3284 10.3284 13 9.5 13H1.5C0.67157 13 0 12.3284 0 11.5V1.5Z" fill="#60646C"/>
</svg>
