<svg width="15" height="15" viewBox="0 0 15 15" fill="none" xmlns="http://www.w3.org/2000/svg">
<path fill-rule="evenodd" clip-rule="evenodd" d="M0.876953 7.49991C0.876953 3.84222 3.8421 0.877075 7.49979 0.877075C11.1574 0.877075 14.1226 3.84222 14.1226 7.49991C14.1226 11.1575 11.1574 14.1227 7.49979 14.1227C3.8421 14.1227 0.876953 11.1575 0.876953 7.49991ZM7.49979 1.82707C4.36677 1.82707 1.82695 4.36689 1.82695 7.49991C1.82695 8.97199 2.38768 10.3131 3.30721 11.3213C4.19068 9.94122 5.73812 9.02502 7.50017 9.02502C9.262 9.02502 10.8092 9.941 11.6928 11.3208C12.612 10.3127 13.1726 8.97175 13.1726 7.49991C13.1726 4.36689 10.6327 1.82707 7.49979 1.82707ZM10.9817 11.9787C10.2838 10.7795 8.98564 9.97502 7.50017 9.97502C6.01452 9.97502 4.71618 10.7797 4.01839 11.9791C4.97946 12.7272 6.18759 13.1727 7.49979 13.1727C8.81221 13.1727 10.0205 12.727 10.9817 11.9787ZM5.14993 6.5049C5.14993 5.20703 6.20206 4.1549 7.49993 4.1549C8.7978 4.1549 9.84993 5.20703 9.84993 6.5049C9.84993 7.80277 8.7978 8.8549 7.49993 8.8549C6.20206 8.8549 5.14993 7.80277 5.14993 6.5049ZM7.49993 5.1049C6.72673 5.1049 6.09993 5.7317 6.09993 6.5049C6.09993 7.2781 6.72673 7.9049 7.49993 7.9049C8.27313 7.9049 8.89993 7.2781 8.89993 6.5049C8.89993 5.7317 8.27313 5.1049 7.49993 5.1049Z" fill="#1C2024"/>
</svg>
