<svg width="11" height="13" viewBox="0 0 11 13" fill="none" xmlns="http://www.w3.org/2000/svg">
<path fill-rule="evenodd" clip-rule="evenodd" d="M5.81825 0.181602C5.64251 0.00587219 5.35759 0.00587219 5.18185 0.181602L2.18185 3.1816C2.00611 3.35734 2.00611 3.64226 2.18185 3.818C2.35759 3.99373 2.64251 3.99373 2.81825 3.818L5.05005 1.5862V8.49968C5.05005 8.74821 5.25152 8.94968 5.50005 8.94968C5.74858 8.94968 5.95005 8.74821 5.95005 8.49968V1.5862L8.1819 3.818C8.3576 3.99373 8.6425 3.99373 8.8182 3.818C8.994 3.64226 8.994 3.35734 8.8182 3.1816L5.81825 0.181602ZM0.5 8.99969C0.77614 8.99969 1 9.22352 1 9.49972V10.9997C1 11.5535 1.44565 11.9997 1.99635 11.9997H9.0012C9.5529 11.9997 10 11.5525 10 10.9997V9.49972C10 9.22352 10.2239 8.99969 10.5 8.99969C10.7761 8.99969 11 9.22352 11 9.49972V10.9997C11 12.1037 10.1062 12.9997 9.0012 12.9997H1.99635C0.89019 12.9997 0 12.1027 0 10.9997V9.49972C0 9.22352 0.22386 8.99969 0.5 8.99969Z" fill="#B9BBC6"/>
</svg>
